<?xml version="1.0" encoding="UTF-8" standalone="no"?>
<svg
   t="1711960669518"
   class="icon"
   viewBox="0 0 799.73374 355.15902"
   version="1.1"
   p-id="4536"
   width="156.198"
   height="69.366997"
   id="svg3"
   xmlns="http://www.w3.org/2000/svg"
   xmlns:svg="http://www.w3.org/2000/svg">
  <defs
     id="defs3" />
  <g
     id="g3"
     transform="translate(-111.9,-334.54344)">
    <path
       d="m 150,409.9 c -1.2,6.4 -5.1,10.9 -6.4,17.4 1.9,-1.3 3.8,-2.6 5.8,-3.2 2.5,-1.9 3.8,-5.2 6.4,-7.7 3.2,-3.9 4.5,-9 6.5,-13.5 2.6,-5.8 1.9,-12.8 0,-19.3 -0.7,-3.2 -1.3,-7.8 -3.9,-9.7 -0.6,-1.3 -1.3,-2.6 -2.6,-3.2 v -2.6 c -3.9,-3.2 -7,-7.1 -11.6,-9.6 h -2.6 c 0.6,10.9 3.5,20.8 6.5,31.6 1.9,6.9 2.5,13.4 1.9,19.8 z m 90.1,135.2 c 0,-0.7 1.3,-1.3 1.9,-1.3 1.3,-1.3 -1.9,-1.3 -1.3,-2.6 1.9,-9.7 2.6,-19.3 4.5,-29 1.9,-11.6 0.7,-22.5 5.8,-33.5 0.7,0 1.3,0 1.3,0.6 0,2.6 0,5.2 -0.6,7.2 -2.6,10.9 -7,22.5 -0.7,32.8 2.6,3.8 7.1,5.8 11.6,6.5 1.3,0 3.2,-2.6 2,-4.5 -1.4,-0.6 -2,-2.6 -2.6,-3.2 -1.9,-3.9 -6.5,-7.1 -5.1,-11.6 1.3,-4.5 3.8,-9 6.4,-13.5 0.7,-0.7 2,-1.9 3.2,-2.6 1.3,-1.3 0.7,-3.9 1.3,-5.2 1.3,-2.5 1.7,-5.6 0,-9 -0.6,-1.3 -0.6,-2.6 -0.6,-3.9 0,-1.3 -1.9,0 -1.9,-1.3 0.6,-1.9 -2,-2.6 -2.6,-4.5 -1.3,-3.2 -4.5,-4.5 -7.8,-7.1 -2.5,-1.9 -6.4,-2.6 -9,-4.5 -2.6,-1.3 -5.8,-1.3 -8.4,0 4.5,5.2 11.6,9 13.5,16.1 0,0.7 -0.6,0.7 -1.2,0.7 -0.7,0 -0.7,-0.7 -0.7,-1.3 -1.3,0 -3.2,-0.6 -4.5,0 -2.6,2 -7.2,1.3 -8.4,3.9 -2.6,3.2 -1.3,9 -3.2,12.9 -3.9,8.4 -8.3,17.4 -14.7,24.5 -2.6,-6.4 3.8,-14.8 -3.3,-19.3 -1.9,-1.3 -5.1,-1.3 -7.7,0 -5.8,2.6 -9.1,9 -14.2,13.5 -3.8,3.9 -7,8.4 -9.6,13.6 -1.3,1.9 -4.5,5.1 -7.1,6.5 -1.3,0.6 -3.2,1.2 -3.9,3.2 -0.6,3.9 0,7.7 1.9,10.9 2.6,3.9 6.4,5.1 9,2.6 1.3,-0.7 1.9,-2.6 3.2,-4.5 0.6,-1.3 0,-3.8 2.5,-4.5 -0.6,-3.2 2,-5.2 2,-8.4 0,-0.6 1.3,-1.2 1.3,-1.2 3.2,-6.5 5.8,-12.9 8.4,-19.4 0.6,-1.3 2.6,-2.6 3.8,-3.2 3.3,12.9 -4.5,25.1 -10.3,36.7 -1.3,3.2 -0.6,6.4 0.6,9.7 1.3,1.9 3.2,2.6 4.5,4.5 0.7,1.3 2.6,0 3.9,1.9 1.2,1.3 3.9,0.6 4.5,0 1.9,-2.6 1.9,-6.4 3.8,-9 0.6,-1.3 0,-2.6 0,-3.9 0.6,-0.6 0.6,-1.3 1.9,-1.3 0,-1.3 0,-3.2 1.9,-3.9 v -1.9 c 0,-0.6 1.3,-0.6 2,-0.6 0.7,-0.6 -0.7,-2.6 0,-3.2 7.7,-7.7 9.7,-18 15.4,-27.1 -1.3,23.2 -4.4,45.1 -8.9,68.3 -1.3,8.4 -2.6,16.1 -6.5,23.8 -2,3.9 -8.4,1.9 -11.6,-2 -1.4,-0.6 -3.2,0.7 -2.6,2.6 0.6,1.3 2.6,2.6 1.9,4.5 2.6,0 1.9,2.6 2.6,3.9 1.9,2.6 3.2,5.8 5.1,8.4 1.3,2.5 3.8,5.8 7.1,3.2 12.8,-9.7 16.1,-26.4 19.3,-41.9 2.2,-9.8 1.6,-19.4 0.9,-29.1 z"
       fill="#cf111b"
       p-id="4537"
       id="path1" />
    <path
       d="m 247.9,438.3 c -3.9,3.2 -9,4.5 -12.2,8.3 19.3,2 36,-9.7 48.9,-22.5 -0.6,18.7 -5.8,37.4 -6.4,56 -1.3,29 1.3,57.3 -1.9,86.3 0,1.3 -2.6,0.6 -4.5,0.6 -5.2,-1.3 -9.7,-3.9 -14.1,-6.4 -4.5,-2.6 -7.7,-6.4 -12.8,-7.7 v 1.9 h 1.2 c 1.3,0.6 0,1.9 0.6,3.2 h 1.3 c 1.3,1.3 1.3,3.2 1.9,3.2 5.1,3.2 8.3,7.1 13.5,10.3 4.5,2.6 8.4,6.4 11,10.3 3.9,7.1 10.3,10.9 17.4,12.2 2,0 2,-2.6 3.2,-3.2 1.3,-1.9 0.7,-4.4 0.7,-7.1 -0.7,-3.9 -1.9,-8.4 -1.9,-12.2 0,-0.6 0.6,-0.6 1.2,-0.6 v -38 c -0.6,0 -1.2,0 -1.2,-0.7 0,-17.4 -0.7,-34.1 0,-51.5 1.2,-19.3 8.1,-37.2 13.5,-56 1.3,-4.5 1.9,-9 0.6,-13.5 -2.5,-7.1 -12.1,-8.4 -18,-5.2 -10.9,5.8 -19.9,12.3 -29.6,20.6 -4,3.3 -8.6,7.8 -12.4,11.7 z m 659.9,-52.2 c -2.6,-1.3 -5.8,-2.6 -8.4,-2 -3.2,1.3 -6.4,0 -9,2.6 -2,1.3 -4.6,0.7 -7.1,0.7 -1.3,0 0,2 -1.3,2 -1.9,0 -3.9,0.7 -5.8,1.3 -9.7,3.8 -19.3,9 -29,14.2 -0.7,-0.6 -1.3,-0.6 -1.9,-0.6 -3.9,-5.9 -10.9,-6.5 -17.4,-6.5 -0.6,-0.6 -1.9,-1.9 -1.3,-3.2 5.1,-7.1 11,-12.2 16.8,-18.7 0.7,0 1.9,-0.6 2.6,-0.6 5.8,-9 16.1,-14.2 13.5,-25.7 0,-0.7 -1.3,-0.7 -1.3,-1.3 0,-4.5 -3.2,-7.7 -5.8,-11 -1.3,-2.5 -3.9,-3.2 -7.1,-2.5 2.5,5.8 1.9,12.2 1.9,18.7 0,0.6 -1.3,0.6 -1.9,0.6 0,2 0,3.2 -1.9,3.9 l 0.7,0.6 c 0,1.3 -1.9,0 -1.9,1.3 0,1.9 -1.3,3.9 -2.6,5.8 -1.9,3.2 -4.5,6.5 -6.4,10.3 -0.7,1.3 -2.6,1.3 -3.3,2.6 -2.6,3.9 -5.1,7.8 -8.4,11 0,0.7 -0.6,1.9 -0.6,2.6 -2.6,3.9 -5.8,8.4 -10.3,9 -5.8,1.3 -10.3,3.9 -16.1,3.2 -0.7,0 -0.7,1.3 -0.7,1.9 3.2,1.3 6.4,3.2 9.7,5.2 -1.3,1.9 -3.9,3.2 -5.9,4.5 0.7,1.3 2.6,2.6 3.9,1.9 0.6,0 1.9,-0.7 3.2,-0.7 1.3,-0.7 1.9,-2 2.5,-2.6 2,-0.7 3.9,-1.9 5.8,-1.9 5.8,-0.7 11.6,-3.9 17.4,-1.9 1.3,0 0.7,3.9 -0.6,5.2 -3.2,3.8 -7.7,5.8 -11.6,9.6 -3.2,2.6 -7.1,3.2 -11.6,2.6 2.6,7.1 -4.5,10.3 -9.1,14.2 -1.2,-5.2 -2.5,-10.3 -4.5,-14.8 -0.6,-1.3 -2.6,-2.6 -2.6,-3.2 -1.3,-3.8 -3.9,-6.4 -5.2,-9 -3.8,-8.4 -10.3,-14.1 -16.7,-20.6 -0.7,-0.6 -2.6,-1.3 -3.9,-0.6 1.3,3.9 3.9,7.1 6.4,11 v 3.2 c 4.5,7.7 9.6,15.4 10.3,24.4 0.6,0 1.3,0 1.3,0.7 v 3.2 c 1.9,3.9 2.6,7.1 2.6,11.6 0,0.7 -0.7,2.6 1.3,3.2 0,0.7 -0.6,0.7 -1.3,0.7 v 1.9 c -1.3,2 -3.8,3.9 -5.1,2 -5.8,-6.5 -9,-18 -18,-20 0.7,7.1 1.3,14.1 3.9,21.2 0.7,3.9 1.3,7.7 3.2,11 2.6,3.2 5.2,6.4 7.7,9 h 2.6 c 1.9,-5.8 3.8,-10.9 7.7,-16.1 2.6,-3.2 5.7,-6.5 9,-8.4 5.2,-3.3 7.9,-8.9 13.5,-10.3 2.6,-0.6 2.6,-4.5 5.8,-3.8 0.7,0 0.7,1.3 0.7,1.9 -5.8,9 -11.6,16.1 -17.4,24.5 3.9,1.3 6.5,-1.3 9.7,-3.8 h 2.5 c 4.5,-5.1 7.1,-12.2 14.2,-15.5 0.6,0 0.6,0.7 0.6,1.3 2.6,0 5.2,1.3 7.1,3.2 0.6,0.7 0.6,-1.9 1.9,-1.2 0,-2 -1.3,-3.2 -1.9,-5.2 -0.7,-2.6 -3.9,-5.8 -2,-7.7 3.2,-3.9 5.8,-7.7 7.7,-11.6 1.3,-1.9 2.6,-3.8 3.9,-6.4 0.7,-1.3 3.2,0 3.9,-0.7 1.3,-2.6 3.9,-2.6 5.2,-3.2 5.2,-2.6 10.3,-5.2 14.8,-8.4 3.3,-1.3 5.8,-1.9 8.4,-3.9 3.2,-2.6 6.5,-3.9 9.7,-5.1 1.3,0 3.3,-1.3 4.5,-0.7 0.6,0 1.3,1.3 1.3,1.3 -0.7,1.9 0,3.9 -2.6,4.5 v 2 c 0,0.7 -0.7,0.7 -1.3,0.7 -0.7,0.6 0,1.3 0.6,1.3 -1.9,2.6 -3.8,5.1 -5.1,7.1 -9.7,15.5 -17.4,30.9 -31,43.2 -0.6,1.2 -3.8,0.6 -5.8,1.9 -0.7,-3.9 3.8,-7.1 6.4,-9.7 1.9,-1.9 3.8,-5.1 4.5,-7.1 0.7,-2.6 2.6,-4.5 2.6,-7.1 0,-0.6 0.6,-1.3 1.9,-1.3 v -1.9 c 0,-1.3 -1.9,0 -1.9,-1.3 0,-2 0,-3.3 -1.9,-4.5 v -1.9 c -2,-0.7 -2.6,-2.6 -3.9,-3.2 -1.9,-0.7 -5.2,-0.7 -5.2,0.7 -1.3,3.8 -1.3,7.7 -1.9,11.6 -1.9,6.5 -4.5,11.6 -7.1,18 0,0.7 -0.6,2.6 -2.6,2.6 0,1.2 0,3.2 -1.9,2.5 1.3,3.9 -4.5,3.9 -5.8,7.1 0,0.7 0,1.3 0.6,1.3 5.2,-0.7 9.7,-3.9 14.2,-5.2 2.6,0 0.7,4.5 1.9,7.1 -1.3,0 0,1.9 -1.3,1.9 -2.6,0.6 -5.2,1.3 -7.8,3.2 -0.6,0.7 -2.5,-0.6 -3.2,0 -1.3,2.6 -4.5,2.6 -5.8,3.2 -3.9,1.9 -7.7,4.5 -12.2,5.7 -1.3,0 -3.2,1.3 -4.5,3.3 h -2.6 c -1.3,1.3 -2.5,2.5 -3.8,3.2 -2.6,1.3 -5.2,1.9 -7.1,3.9 h -2.6 c -0.7,2.6 -3.2,1.3 -4.5,3.2 -0.7,0.6 -2.6,0.6 -3.9,0.6 -3.9,2.6 -7.7,3.9 -11.6,6.5 -0.7,0.7 0,1.3 0.6,1.3 h 2.6 c 0.6,0 0.6,0.7 0.6,1.3 5.8,0 10.9,-1.9 16.8,-3.2 15.5,-3.8 29,-9.6 43.8,-16.1 0.7,-0.6 2.6,-1.3 3.9,-1.3 v -1.3 c 1.9,-1.3 3.9,-1.3 5.8,-3.2 0.6,0.7 2.6,1.3 1.9,2.6 -10.3,11 -20.6,19.3 -29.6,32.2 0,1.3 0,3.2 -1.9,2.5 0,2 -1.3,3.3 -1.3,3.9 -1.3,4.5 -2,11.6 -7.8,9.7 l 0.6,0.6 c -14.2,5.2 -27.7,10.9 -41.2,17.4 -7.7,3.8 -15.4,7.7 -22.5,14.1 h -2.6 c 0.6,1.9 -2.6,1.9 -2,2.6 0,2.6 -1.3,5.8 0.6,6.4 7.8,5.8 16.8,0.7 24.5,-4.5 2.6,-1.9 5.1,-3.8 7.7,-4.5 5.1,-1.3 8.4,-5.8 14.1,-5.8 1.3,0 0,-1.9 1.3,-1.9 2.6,0 4.5,-2.6 7.8,-1.9 1.3,0 0,-1.9 1.3,-1.9 1.3,0 2.6,0.6 3.9,0 4.5,-2.5 9,-4.5 13.5,-7.1 2.6,-1.3 2.6,3.2 3.2,4.5 2.6,17.4 4.5,34.1 3.2,50.8 -6.4,7.7 -17.3,7.1 -27,7.1 -0.6,0 -0.6,-0.6 -0.6,-1.3 -7.1,1.3 -13.6,-3.2 -21.3,-3.2 0,1.3 1.2,2.6 2.6,3.2 9,4.5 18.7,8.4 28.3,11.6 1.9,0.6 4.5,-0.6 5.8,0.6 1.3,1.3 3.2,0.7 4.5,0.7 3.9,0 7.7,1.3 10.9,0 2.6,-1.3 3.9,-3.8 4.5,-6.4 0.6,-7.7 -0.7,-16.1 -0.7,-23.8 0,-2.6 0.7,-5.2 0,-7.8 0,-0.7 -1.3,-0.7 -1.3,-1.3 0,-2.6 0.7,-5.8 0,-7.7 -0.6,-2 0,-5.1 -0.6,-7.7 -0.7,0 -1.4,0 -1.4,-0.6 0,-2.6 0.6,-5.2 0,-7.1 -1.9,-5.1 -3.9,-9.6 -3.2,-14.8 0.6,-2.6 5.1,-3.3 7.7,-5.2 h 2.6 c 1.9,-3.2 5.1,-1.3 7.1,-3.9 1.3,-0.6 3.2,0 4.5,0 0.7,0 0.7,-1.3 1.3,-1.3 1.9,0 6.4,-0.7 5.8,1.9 -2.6,8.4 -12.9,11.6 -18.7,18.7 h 1.3 c 0.6,0 0.6,0.6 0.6,1.3 6.5,-0.7 11,-5.2 17.4,-6.4 0,-1.3 0.6,-1.3 1.3,-1.9 5.1,-1.3 7.7,-6.5 12.2,-9.7 0.6,-0.7 1.9,-1.3 3.2,-0.7 -0.6,-1.9 1.9,-1.3 2.6,-2.6 0.6,-4.5 -4.5,-5.8 -7.1,-8.4 -2.6,-1.9 -5.8,-0.7 -8.3,-0.7 -12.9,-1.3 -25.2,3.9 -38,3.9 0,-2.6 1.9,-5.2 3.8,-6.5 5.8,-2.6 11,-6.4 16.1,-10.4 h 2.6 c 1.3,0 0,-1.9 1.3,-1.9 h 1.9 c 3.8,-3.9 9,-5.1 12.3,-10.3 0.6,-1.3 3.8,-0.7 5.1,-1.9 0,-0.7 0,-1.3 -0.6,-1.9 1.3,-1.3 2.6,-2 3.8,-2.6 -1.3,-2.6 1.9,-2.6 2.6,-4.5 0,-0.7 0.7,-2.6 2.6,-2 0.7,-3.2 2.6,-5.1 5.2,-7.1 v -1.9 c 2.6,-2.6 5.2,-6.4 3.2,-9.7 -2,-3.2 -6.4,-5.2 -11,-5.8 -1.3,0 -4.5,-1.9 -1.9,-3.9 3.9,-2.6 6.5,-6.4 9,-10.3 0.7,-0.6 2.6,-1.3 2.6,-3.2 0,-0.6 1.3,-0.6 2,-0.6 3.8,-7.8 9.6,-12.9 13.5,-20.7 1.3,-1.2 2.6,-2.5 3.8,-3.2 -0.6,-0.7 1.3,-1.9 0,-2.6 2.6,-2.6 3.9,-5.8 5.8,-8.4 1.9,-2 3.9,-3.9 6.5,-5.8 1.3,-1.3 1.3,-3.2 1.9,-5.2 2,-3.3 -1.2,-6.5 -3.2,-7.8 z M 685.7,557.4 c 1.3,-0.7 3.2,-1.3 3.9,-2.6 0.6,-1.9 0.6,-4.5 -0.6,-6.4 -2.5,-1.9 -5.8,0.6 -9,0 -12.2,-2.6 -22.5,-7.7 -32.8,-15.5 -0.7,0 -2.6,-0.7 -3.2,-0.7 -12.9,-9.6 -23.8,-20 -37.3,-28.3 -1.3,-1.3 -3.9,-3.8 -2,-5.8 2,-2.6 5.8,-3.9 9.7,-5.8 4.5,-3.2 8.3,-5.8 12.2,-9 7.1,-5.8 14.8,-10.3 20.6,-18 0.6,-0.7 2.6,-1.3 2.6,-1.9 1.3,-2.6 1.9,-6.5 0,-8.4 -2.6,-3.2 -5.2,-6.4 -8.4,-9 -3.2,-3.2 -2.6,-9.7 -7.7,-10.9 -0.7,0 -0.7,1.9 -0.7,2.6 1.9,4.5 5.1,8.4 5.1,12.9 0.7,3.2 0,6.4 -2.6,9 -3.2,3.2 -7.1,4.5 -11,7.1 -3.2,1.9 -7,3.8 -10.2,5.1 -0.6,0 -2.6,1.9 -3.2,0 0,-3.2 1.3,-7.1 2.6,-10.3 1.9,-4.6 0.6,-10.3 4.5,-14.9 -0.6,0 -1.3,0 -1.3,-0.6 3.8,-14.2 5.8,-28.3 6.4,-42.5 0,-5.2 -1.9,-11 -4.5,-16.1 -2,-2.6 -5.2,-4.5 -8.4,-3.2 -1.9,0.7 -2.6,3.2 -2.6,5.2 -3.8,18.7 -4.5,36 -6.5,54.1 -1.3,12.9 -3.8,25.8 -7.7,38.6 -2.6,6.4 -10.9,9 -16.7,12.2 -2,1.3 -4.5,2.6 -6.5,3.2 -2.6,1.3 -6.4,3.8 -9.7,4.5 -1.3,0 0,1.9 -1.3,1.9 h -1.9 c -0.7,1.3 0,2.6 0.6,3.2 2.6,0.7 3.3,3.2 5.8,3.9 2.6,0.6 5.2,1.3 7.1,0.6 4.4,-1.9 8.9,-5.9 14.1,-5.9 1.3,0 0.7,2 0.7,3.3 -4.5,11.6 -11,22.5 -14.2,34.7 0,1.3 -1.9,0 -1.9,1.3 v 2 c -2.6,1.9 -3.9,4.5 -5.2,7.1 -4.5,5.8 -11,9 -15.4,14.2 2,0.6 3.9,0 5.8,-0.7 4.5,-1.3 8.4,-4.5 12.2,-7.8 7.7,-6.4 14.2,-14.8 21.3,-23.2 v -2.5 c 0,-1.3 1.3,-0.6 1.9,-0.6 v -1.3 c 0.6,-0.7 1.9,-0.7 1.9,-0.7 0.6,-1.9 2,-3.9 2.6,-6.4 0,-0.6 1.3,-2.5 2,-3.8 3.9,-5.1 3.2,-11.6 6.4,-17.4 9.1,10.3 19.4,18.7 28.4,29.6 7.1,9 12.2,18 19.9,26.4 1.3,2 3.8,3.9 7.1,3.9 5.1,-0.7 10.3,-0.7 14.2,-2.6 2,-1.3 4.5,-0.6 6.4,-2.6 1.9,-1.2 4.6,0.1 6.5,-1.2 z"
       fill="#cf111b"
       p-id="4538"
       id="path2" />
    <path
       d="m 122.3,605 c 0.6,0 1.3,0.6 2.6,1.9 1.3,1.9 4.5,0 5.1,-1.9 1.9,-7.1 4.5,-12.9 6.4,-19.9 1.3,-5.2 5.8,-9.7 7.7,-15.5 0.7,-1.9 0.7,-4.5 0.7,-6.4 1.3,-2.6 1.9,-5.8 2.5,-8.4 2,-5.8 5.2,-11.6 4.5,-18 0,-1.3 2,0 2,-1.3 0,-1.3 -0.7,-3.2 0,-4.5 1.9,-2 1.3,-4.6 2.6,-6.5 1.3,-1.3 0,-3.8 1.9,-5.8 1.3,-0.6 0,-4.5 1.3,-5.8 1.9,-2.6 1.3,-5.2 2.6,-7.1 1.9,-6.4 1.9,-14.1 3.2,-21.2 5.8,-1.9 12.2,-1.3 18,-3.8 1.9,-0.7 3.9,-1.3 5.8,-2 6.5,-5.8 12.2,-12.2 18.7,-18.6 0.6,-0.7 0,-2 1.2,-2.6 h 1.3 v -1.3 c 0.6,-0.6 1.3,-0.6 1.9,-0.6 -0.6,-2 1.3,-2.6 1.9,-2.6 2,-0.7 2,-3.3 4.5,-2.6 0.6,0 0,-1.9 1.3,-1.9 1.9,0 3.2,-2 5.1,-2.6 7,-3.2 13.5,-7.7 20.6,-11.6 5.8,-3.2 5.8,-12.2 3.9,-18.6 -0.7,-1.3 -3.9,-1.3 -3.9,-3.2 -1.9,0 -3.9,-1.3 -5.2,-1.9 -7.1,-6.4 -13.5,-12.9 -19.3,-20.6 -1.9,-2.6 -1.9,-5.2 -2.6,-8.4 -1.3,-3.9 -4.5,-4.5 -7.7,-3.9 -2.6,0.6 -3.2,3.2 -3.2,4.5 -5.9,20 -11.6,38.6 -12.9,59.3 -12.2,9.6 -25.7,16.1 -36.7,27.7 -2.6,1.9 -5.8,3.8 -7.1,6.4 -1.9,2.6 -3.9,5.8 -2.5,9 1.2,3.9 4.5,7.1 3.2,11.6 -4.5,16.1 -8.3,32.2 -16.7,46.4 -2.6,-16.7 -8.4,-32.2 -11.5,-48.3 -10.3,24.5 -9,51.5 -9,77.9 0,6.5 -2.6,12.2 -2.6,18.7 v 1.9 c 0.7,5.7 5.2,8.9 10.4,12.1 z m 99.8,-189.9 c 0.7,-5.1 0.6,-10.3 0,-15.5 5.2,5.8 9.6,14.2 5.8,21.9 -1.3,3.2 -7.1,3.8 -9,7.7 0,-5.1 2.6,-9.6 3.2,-14.1 z m 259.5,145.5 c 0.7,-4.5 2.6,-8.4 2.6,-12.9 -2,-20 -3.3,-40 -3.3,-59.9 0,-0.6 0.6,-0.6 1.3,-0.6 0,-1.3 -1.9,-0.6 -1.3,-2 3.8,-3.8 -0.6,-9 2.6,-14.2 2,-1.9 0,-5.1 0.7,-8.4 0,-0.7 0.6,-1.3 1.9,-1.3 0.6,-3.3 0,-5.8 1.3,-9 1.3,-3.3 1.3,-8.4 0,-11.6 -0.7,-1.3 -1.3,-3.2 -3.2,-3.9 -2.6,0 -5.8,-1.3 -8.4,-0.6 -11,3.9 -22,8.4 -32.9,13.5 0,0 -0.6,0.7 -1.3,1.3 -4.5,1.3 -9.6,4.5 -14.2,7.1 -0.7,0 -1.9,0 -1.9,-0.6 0.7,-1.3 1.9,-3.9 3.9,-3.9 v -1.2 c 0,-0.7 0.7,-0.4 1.3,-0.7 1.3,-0.7 2,-2 3.2,-3.2 1.9,-1.3 4.5,-2 6.4,-3.2 3.3,-2.6 5.8,-5.2 9,-7.7 1.9,-0.7 3.9,-2.6 5.8,-3.9 6.5,-3.8 12.3,-7 16.8,-12.2 1.9,-3.2 0.7,-7.7 -2.6,-9 -3.2,-1.3 -5.1,-4.5 -9,-4.5 0.6,4.5 1.3,9.7 -2.5,12.2 -2,0.6 -2.6,1.9 -3.9,2.6 -1.9,0 -2.5,1.3 -3.8,1.9 -1.3,0 -3.9,0.6 -3.9,-0.6 0.7,-3.8 1.3,-7.7 1.9,-12.2 1.3,-6.4 2,-12.9 0.7,-19.3 0,-2.5 -1.3,-9 -4.5,-9 -2.6,0.6 -3.9,6.5 -5.8,10.3 -0.6,1.3 -1.3,2.6 -2,3.9 -5.2,8.4 -7.7,16.8 -9.7,25.1 -1.3,4.5 0,10.3 -3.2,12.9 -14.8,10.9 -30.9,18.7 -47,25.8 -4.6,1.9 -8.4,3.8 -12.9,5.8 -0.7,0 0.6,2 1.3,2.6 5.8,1.9 12.9,3.8 18.6,1.2 1.3,-0.7 3.2,-1.2 5.2,-1.2 0.6,0 0.6,0.6 0.6,1.2 9,-3.2 18.7,-6.4 27.1,-11.6 0.6,0 1.9,0 1.9,0.7 -0.7,1.3 -1.3,3.2 -1.9,4.5 -3.3,4.6 -7.8,6.4 -11.6,9.7 -3.8,3.9 -7.7,7.1 -12.8,10.3 -3.9,3.2 -6.5,5.8 -9.7,9.7 -3.2,4.5 -6.5,9 -8.4,13.5 -2.6,5.2 -3.9,10.3 -7.1,14.2 -6.5,8.3 -9.6,17.4 -8.4,27 0,3.2 3.2,5.8 4.5,9 0.7,0 2.6,0.6 3.2,0 3.8,-10.3 1.9,-21.3 5.1,-31.6 0.6,-3.8 1.9,-7.1 3.2,-10.9 1.9,-3.8 5.8,-7 9.7,-7.7 3.2,-1.3 6.4,-2.6 9,-4.5 h 2 c 0,-0.6 0,-1.3 0.6,-1.3 1.3,0 2.6,-0.7 3.2,0 1.9,2.6 4.5,3.2 6.4,5.8 1.3,0.7 3.2,0.7 4.5,0.7 0,-0.7 0,-1.4 0.7,-1.4 1.9,0 2.5,-1.9 3.2,-1.3 3.2,1.3 0,6.5 1.9,9 1.3,1.3 3.9,0.7 3.2,3.3 -2,4.5 -4.5,9 -7.1,13.5 0,0.7 -1.9,2 -2.6,2.6 -0.7,1.9 -1.9,3.8 -1.9,6.4 0.7,0 1.2,0 1.2,0.6 0,2.6 0,5.8 2,6.5 5.1,1.3 7.7,-5.2 12.8,-5.8 0.7,0 2,1.3 1.4,2.6 -2,5.2 0,10.9 1.9,15.4 0.7,1.3 2,4.5 3.2,2 4.5,-10.4 0.6,-21.3 6.4,-31.6 0.7,-0.7 2,-0.7 2,-0.7 0.6,-3.8 3.2,-7.1 1.9,-10.9 -1.3,-2.6 -1.3,-5.8 -3.8,-7.7 -0.6,0 -1.9,-0.7 -2.6,-0.7 -1.2,-0.6 -1.9,-3.2 -3.9,-2.6 0,-2 -3.2,-2 -2.6,-3.9 6.4,-6.4 12.9,-11.6 17.4,-19.3 1.2,-2.6 0.6,-5.2 -1.9,-5.8 -5.8,-1.9 -14.8,-3.9 -18,3.9 -2.6,6.4 -10.3,11.6 -18.1,11.6 -0.6,0 -1.3,-0.7 -0.6,-1.3 6.5,-5.8 11.6,-11 18.7,-16.1 0.6,-0.7 0.6,-2.6 1.3,-3.2 1.9,0 2.6,-1.9 4.5,-2.6 1.3,0 2,-1.9 3.2,-3.2 11.6,-6.4 23.2,-11 34.8,-16.7 1.3,-0.6 3.9,-1.9 5.1,-1.3 0.6,0.7 2,0 2,1.3 0.6,3.8 3.2,7.1 1.2,10.3 -0.6,1.9 0,3.8 -0.6,5.1 -2.6,10.3 -1.3,21.3 -1.3,31.5 -0.7,13.5 -0.7,27 -1.3,40.6 0,6.4 0,12.8 -2.5,19.3 -3.9,9 -15.5,3.2 -21.9,-0.6 1.2,7.7 10.3,11.6 16.1,15.4 3.2,1.9 7.2,3.9 11,1.3 4.6,-3.3 4.6,-9.1 5.3,-13.6 z m -56,-37.4 c 0.7,-0.6 1.3,-0.6 1.9,-0.6 0.6,0 0.6,0.6 0.6,1.3 -0.6,0.6 -0.6,0.6 -1.3,1.2 -0.6,0 -1.3,0 -1.3,-0.6 0.1,-0.6 -0.4,-0.8 0.1,-1.3 z M 140.8,641.3 h 1.6 c 1.4,0 2.4,0.2 3.3,0.7 0.8,0.5 1.4,1 1.6,1.6 0.3,0.6 0.4,2.2 0.4,4.6 v 13.7 h -17.2 v -13.7 c 0,-2.4 0.1,-3.9 0.4,-4.5 0.4,-0.8 0.9,-1.4 1.5,-1.7 0.9,-0.5 2,-0.8 3.4,-0.8 h 1.6 V 640 H 112 v 1.3 h 1.6 c 1.4,0 2.4,0.2 3.2,0.7 0.8,0.5 1.3,1 1.6,1.6 0.3,0.6 0.4,2.2 0.4,4.6 v 31.9 c 0,2.4 -0.1,3.9 -0.4,4.5 -0.3,0.8 -0.8,1.4 -1.4,1.7 -0.9,0.5 -2,0.8 -3.4,0.8 H 112 v 1.3 h 25.4 v -1.3 h -1.6 c -1.4,0 -2.4,-0.2 -3.2,-0.7 -0.8,-0.5 -1.3,-1 -1.6,-1.6 -0.3,-0.6 -0.4,-2.2 -0.4,-4.6 v -15 h 17.2 v 15 c 0,2.4 -0.2,3.9 -0.4,4.5 -0.4,0.8 -0.8,1.4 -1.5,1.7 -0.8,0.5 -2,0.8 -3.4,0.8 h -1.6 v 1.3 h 25.3 v -1.3 h -1.6 c -1.3,0 -2.4,-0.2 -3.3,-0.7 -0.8,-0.5 -1.3,-1 -1.6,-1.6 -0.3,-0.6 -0.4,-2.2 -0.4,-4.6 v -31.9 c 0,-2.4 0.1,-3.9 0.4,-4.5 0.4,-0.8 0.9,-1.4 1.5,-1.7 0.8,-0.5 2,-0.8 3.4,-0.8 h 1.6 V 640 h -25.3 v 1.3 z m 65.2,0 c 1.9,0 3.5,0.3 4.5,0.8 0.7,0.4 1.3,1 1.7,1.9 0.4,0.9 0.7,2.5 0.7,4.7 v 19.8 c 0,5.1 -0.5,8.8 -1.4,10.8 -0.9,2.1 -2.3,3.7 -4.1,4.9 -1.9,1.2 -4.1,1.8 -6.7,1.8 -2.3,0 -4.2,-0.5 -5.7,-1.4 -1.5,-0.9 -2.6,-2.1 -3.2,-3.5 -0.7,-1.4 -1,-4.3 -1,-8.6 v -23.7 c 0,-2.8 0.2,-4.5 0.5,-5.2 0.3,-0.7 0.8,-1.2 1.5,-1.6 0.7,-0.4 2,-0.6 3.9,-0.6 H 198 V 640 h -25 v 1.3 c 2,0 3.5,0.2 4.2,0.6 0.8,0.4 1.3,0.9 1.6,1.6 0.3,0.7 0.5,2.4 0.5,5.2 v 23.7 c 0,4 0.6,7.2 1.9,9.6 1.3,2.4 3.5,4.3 6.6,5.9 2.3,1.1 5.5,1.7 9.7,1.7 5,0 9,-1 11.9,-3.2 2.9,-2.1 4.7,-4.4 5.5,-7 0.7,-2.5 1.1,-6.7 1.1,-12.3 v -18.4 c 0,-2 0.2,-3.4 0.5,-4.1 0.4,-1.1 1.1,-1.9 2,-2.5 0.9,-0.5 2,-0.8 3.4,-0.8 h 1 V 640 H 206 Z m 56.9,0 c 2.7,0 4.6,0.6 5.8,2 0.8,1 1.2,3 1.2,5.9 V 670 l -24,-30 h -17.2 v 1.3 c 1.5,0.1 2.6,0.3 3.4,0.7 0.8,0.4 1.7,1.3 2.7,2.6 l 1,1.3 v 34.2 c 0,2.6 -0.5,4.4 -1.6,5.5 -1,1.1 -2.9,1.6 -5.6,1.6 v 1.3 h 17.2 v -1.3 h -1.1 c -1.6,0 -3.1,-0.5 -4.4,-1.5 -1.3,-1 -1.9,-2.9 -1.9,-5.6 v -30.8 l 32.8,40.4 h 1.2 v -40.4 c 0,-2.3 0.2,-3.9 0.6,-4.9 0.4,-0.9 0.9,-1.6 1.7,-2 0.7,-0.4 2.1,-0.8 4.1,-1 V 640 h -16 v 1.3 z m 65.9,37.5 -17.5,-39.8 h -0.7 l -17.3,38.7 c -1.7,3.7 -3,6.1 -4.1,7.3 -1.1,1.2 -2.6,1.9 -4.3,2.2 v 1.3 H 301 v -1.3 c -2.5,-0.2 -4.1,-0.5 -4.8,-0.9 -1.1,-0.6 -1.7,-1.6 -1.7,-3 0,-1 0.3,-2.3 1,-3.9 l 2,-4.7 h 17.1 l 2.6,6 c 0.7,1.6 1,2.5 1.1,2.7 0.1,0.4 0.2,0.9 0.2,1.3 0,0.7 -0.3,1.3 -0.8,1.7 -0.8,0.5 -2.1,0.8 -4,0.8 h -1 v 1.3 h 23.5 v -1.3 c -1.5,-0.1 -2.6,-0.6 -3.4,-1.3 -1,-1 -2.3,-3.3 -4,-7.1 z m -29.9,-6.7 7.4,-16.7 7.2,16.7 z M 376,641.3 c 2.7,0 4.6,0.6 5.8,2 0.8,1 1.3,3 1.3,5.9 V 670 l -24,-30 h -17.2 v 1.3 c 1.5,0.1 2.6,0.3 3.4,0.7 0.8,0.4 1.7,1.3 2.7,2.6 l 1,1.3 v 34.2 c 0,2.6 -0.5,4.4 -1.6,5.5 -1.1,1.1 -2.9,1.6 -5.6,1.6 v 1.3 H 359 v -1.3 h -1 c -1.6,0 -3.1,-0.5 -4.4,-1.5 -1.3,-1 -1.9,-2.9 -1.9,-5.6 v -30.8 l 32.8,40.4 h 1.2 v -40.4 c 0,-2.3 0.2,-3.9 0.6,-4.9 0.4,-0.9 0.9,-1.6 1.6,-2 0.7,-0.4 2.1,-0.8 4.2,-1 V 640 h -16 v 1.3 z m 78.3,0 c 2,0 3.5,0.3 4.6,0.8 0.7,0.4 1.3,1 1.7,1.9 0.5,0.9 0.7,2.5 0.7,4.7 v 19.8 c 0,5.1 -0.5,8.8 -1.4,10.8 -0.9,2.1 -2.3,3.7 -4.2,4.9 -1.9,1.2 -4.1,1.8 -6.7,1.8 -2.3,0 -4.2,-0.5 -5.7,-1.4 -1.5,-0.9 -2.6,-2.1 -3.2,-3.5 -0.6,-1.4 -1,-4.3 -1,-8.6 v -23.7 c 0,-2.8 0.1,-4.5 0.4,-5.2 0.3,-0.7 0.8,-1.2 1.5,-1.6 0.7,-0.4 2,-0.6 3.9,-0.6 h 1.2 V 640 h -25 v 1.3 c 2,0 3.5,0.2 4.2,0.6 0.8,0.4 1.3,0.9 1.6,1.6 0.3,0.7 0.5,2.4 0.5,5.2 v 23.7 c 0,4 0.6,7.2 1.9,9.6 1.3,2.4 3.5,4.3 6.6,5.9 2.3,1.1 5.5,1.7 9.7,1.7 5,0 9,-1 11.9,-3.2 2.9,-2.1 4.7,-4.4 5.5,-7 0.8,-2.5 1.1,-6.7 1.1,-12.3 v -18.4 c 0,-2 0.2,-3.4 0.5,-4.1 0.4,-1.1 1.1,-1.9 2,-2.5 0.9,-0.5 2,-0.8 3.4,-0.8 h 1 V 640 h -16.8 v 1.3 z m 56.9,0 c 2.7,0 4.6,0.6 5.8,2 0.8,1 1.2,3 1.2,5.9 V 670 l -24,-30 H 477 v 1.3 c 1.5,0.1 2.6,0.3 3.4,0.7 0.8,0.4 1.7,1.3 2.7,2.6 l 1,1.3 v 34.2 c 0,2.6 -0.5,4.4 -1.6,5.5 -1,1.1 -2.9,1.6 -5.6,1.6 v 1.3 h 17.2 v -1.3 H 493 c -1.6,0 -3.1,-0.5 -4.4,-1.5 -1.3,-1 -1.9,-2.9 -1.9,-5.6 v -30.8 l 32.8,40.4 h 1.2 v -40.4 c 0,-2.3 0.2,-3.9 0.6,-4.9 0.4,-0.9 0.9,-1.6 1.6,-2 0.7,-0.4 2.1,-0.8 4.1,-1 V 640 h -16 v 1.3 z m 22.8,0 h 1.6 c 1.3,0 2.4,0.2 3.2,0.7 0.8,0.5 1.3,1 1.6,1.6 0.3,0.6 0.4,2.2 0.4,4.6 v 31.9 c 0,2.4 -0.1,3.9 -0.4,4.5 -0.3,0.8 -0.8,1.4 -1.4,1.7 -0.9,0.5 -2,0.8 -3.4,0.8 H 534 v 1.3 h 25.4 v -1.3 h -1.6 c -1.4,0 -2.4,-0.2 -3.2,-0.7 -0.8,-0.5 -1.3,-1 -1.6,-1.6 -0.3,-0.6 -0.4,-2.2 -0.4,-4.6 v -31.9 c 0,-2.4 0.1,-3.9 0.4,-4.5 0.3,-0.8 0.8,-1.4 1.5,-1.7 0.8,-0.5 2,-0.8 3.4,-0.8 h 1.6 V 640 H 534 Z m 67,0 c 1.7,0 3.1,0.2 4.1,0.6 0.7,0.3 1.3,0.7 1.7,1.2 0.4,0.6 0.6,1.2 0.6,1.9 0,0.6 -0.1,1.4 -0.4,2.3 -0.3,0.9 -1,2.6 -2.1,5.2 l -9.6,21.5 -10.4,-24.2 c -1.1,-2.5 -1.7,-4.1 -1.9,-4.7 -0.2,-0.6 -0.3,-1.1 -0.3,-1.5 0,-0.7 0.3,-1.2 0.8,-1.6 0.8,-0.5 2.2,-0.8 4.3,-0.8 h 0.8 V 640 h -23.3 v 1.3 c 1.9,0.2 3.2,0.7 3.9,1.6 0.7,0.8 2,3.5 4,8.2 l 16.6,38.6 h 1.2 l 16.7,-37.1 c 2,-4.4 3.5,-7.2 4.5,-8.4 1.4,-1.6 3,-2.5 4.7,-2.8 V 640 H 601 Z m 58.7,41.4 c -2.7,2.1 -6.4,3.2 -10.9,3.2 h -2.9 c -1.4,0 -2.4,-0.2 -3,-0.6 -0.6,-0.4 -1,-0.9 -1.3,-1.5 -0.2,-0.6 -0.3,-2.2 -0.3,-4.9 v -13.7 c 2.3,0 4.1,0.3 5.3,0.9 1.2,0.6 2.3,1.8 3.2,3.6 0.9,1.8 1.5,4 1.8,6.8 h 1.4 v -25.4 h -1.4 c -0.4,3.8 -1.3,6.6 -2.7,8.6 -1.4,1.9 -3.6,2.9 -6.7,2.9 h -1 v -19.8 h 5 c 3.7,0 6.2,0.2 7.5,0.7 2.3,0.7 4.1,1.8 5.3,3.4 1.2,1.5 2.2,4 2.9,7.5 h 1.4 V 640 h -40.6 v 1.3 h 1.6 c 1.6,0 2.8,0.3 3.7,1 0.6,0.4 1.1,1.1 1.3,1.9 0.1,0.5 0.2,1.8 0.2,4 v 31.9 c 0,2.4 -0.1,3.9 -0.4,4.5 -0.3,0.8 -0.8,1.4 -1.4,1.7 -0.9,0.5 -2,0.8 -3.4,0.8 h -1.6 v 1.3 h 41.9 l 2.2,-15.4 h -1.3 c -1.1,4.4 -3.1,7.6 -5.8,9.7 z m 61,-0.7 -11.7,-16.4 c 2.9,-0.7 5.2,-1.8 6.9,-3.3 2.6,-2.3 3.9,-5.3 3.9,-8.9 0,-2.9 -0.9,-5.5 -2.6,-7.7 -1.7,-2.2 -3.9,-3.7 -6.6,-4.5 -2.7,-0.8 -7,-1.2 -12.9,-1.2 h -22.5 v 1.3 c 2.2,0 3.7,0.2 4.5,0.6 0.8,0.4 1.4,0.9 1.7,1.6 0.3,0.7 0.5,2.3 0.5,5 V 680 c 0,2.6 -0.2,4.3 -0.5,4.9 -0.3,0.7 -0.9,1.2 -1.7,1.6 -0.8,0.4 -2.3,0.6 -4.5,0.6 v 1.3 H 700 v -1.3 c -2.2,0 -3.7,-0.2 -4.5,-0.6 -0.8,-0.4 -1.4,-1 -1.7,-1.6 -0.3,-0.7 -0.5,-2.3 -0.5,-5 v -13.6 h 3.2 l 15.6,22.1 h 15.3 v -1.3 c -1.3,-0.1 -2.4,-0.5 -3.4,-1.2 -0.6,-0.4 -1.7,-1.8 -3.3,-3.9 z m -14,-22.3 c -0.9,1.6 -2.2,2.7 -3.9,3.3 -1.6,0.6 -4.1,0.9 -7.4,0.9 h -2 v -21.3 h 3.8 c 3.8,0 6.6,0.9 8.4,2.7 1.7,1.7 2.6,4.5 2.6,8.2 -0.1,2.5 -0.6,4.6 -1.5,6.2 z m 47.1,-1.3 c -4.1,-2 -6.7,-3.4 -7.8,-4.2 -1.5,-1.1 -2.6,-2.2 -3.3,-3.3 -0.5,-0.8 -0.7,-1.8 -0.7,-2.9 0,-1.7 0.7,-3.2 2.1,-4.5 1.4,-1.3 3.3,-2 5.8,-2 3.1,0 6.1,1.2 8.8,3.7 2.7,2.5 4.4,5.7 5.1,9.8 h 1.5 l -0.4,-16.2 h -1.1 c -0.3,1.4 -0.6,2.4 -1,2.7 -0.3,0.4 -0.8,0.6 -1.5,0.6 -0.7,0 -1.8,-0.4 -3.4,-1.2 -1.6,-0.8 -3,-1.3 -4.1,-1.6 -1.5,-0.4 -3,-0.6 -4.6,-0.6 -4.3,0 -7.9,1.4 -10.7,4.1 -2.8,2.7 -4.2,6 -4.2,9.9 0,2.3 0.5,4.3 1.5,6.2 1,1.9 2.5,3.6 4.5,5.1 1.9,1.6 5.1,3.4 9.5,5.6 3.1,1.5 5.3,2.8 6.6,3.8 1.2,1 2.2,2 2.8,3.1 0.6,1 0.9,2.2 0.9,3.3 0,1.9 -0.8,3.6 -2.4,5.1 -1.6,1.4 -3.7,2.2 -6.4,2.2 -3.5,0 -6.7,-1.3 -9.7,-4.1 -3,-2.7 -5,-6.6 -6.1,-11.8 h -1.3 v 18.3 h 1.3 c 0.4,-1 1,-1.7 1.7,-2.2 0.7,-0.5 1.3,-0.7 2,-0.7 0.8,0 1.7,0.2 2.8,0.7 2,0.9 3.8,1.4 5.1,1.8 1.3,0.3 2.8,0.5 4.3,0.5 4.8,0 8.9,-1.4 12,-4.4 3.2,-2.9 4.8,-6.4 4.8,-10.5 0,-3.2 -1,-6 -2.9,-8.5 -2,-2.4 -5.8,-5 -11.5,-7.8 z m 22.5,-17.1 h 1.6 c 1.4,0 2.4,0.2 3.2,0.7 0.8,0.5 1.3,1 1.6,1.6 0.3,0.6 0.4,2.2 0.4,4.6 v 31.9 c 0,2.4 -0.1,3.9 -0.4,4.5 -0.3,0.8 -0.8,1.4 -1.4,1.7 -0.9,0.5 -2,0.8 -3.4,0.8 h -1.6 v 1.3 h 25.4 v -1.3 h -1.6 c -1.4,0 -2.4,-0.2 -3.2,-0.7 -0.8,-0.5 -1.3,-1 -1.6,-1.6 -0.3,-0.6 -0.4,-2.2 -0.4,-4.6 v -31.9 c 0,-2.4 0.1,-3.9 0.4,-4.5 0.4,-0.8 0.8,-1.4 1.5,-1.7 0.9,-0.5 2,-0.8 3.4,-0.8 h 1.6 V 640 h -25.4 v 1.3 z m 33.4,11.8 h 1.4 c 0.5,-3.6 1.8,-6.3 3.9,-8.3 1.5,-1.4 3.8,-2.1 7.1,-2.1 h 3.5 v 37.4 c 0,2.4 -0.1,3.9 -0.4,4.5 -0.4,0.8 -0.9,1.4 -1.5,1.7 -0.9,0.5 -2,0.8 -3.4,0.8 h -1.6 v 1.3 h 25.4 v -1.3 h -1.6 c -1.4,0 -2.5,-0.2 -3.3,-0.7 -0.8,-0.5 -1.3,-1 -1.6,-1.6 -0.3,-0.6 -0.4,-2.2 -0.4,-4.6 v -37.4 h 3.6 c 2.3,0 3.9,0.2 4.7,0.7 1.6,0.8 2.9,1.8 3.8,3.2 0.9,1.3 1.8,3.5 2.5,6.5 h 1.3 V 640 h -43.6 v 13.1 z m 87.1,-11.8 c 2.2,0.1 3.7,0.5 4.5,1.1 0.6,0.4 0.9,1 0.9,1.6 0,1.2 -1.1,3.6 -3.3,7.1 l -8.7,14.6 -8.8,-16.1 c -1.9,-3.5 -2.9,-5.6 -2.9,-6.5 0,-0.5 0.3,-0.9 0.8,-1.3 0.6,-0.4 1.5,-0.6 3,-0.6 h 1 V 640 H 860 v 1.3 c 1.6,0 2.8,0.4 3.7,1.1 0.9,0.7 2.5,3.1 4.8,7.2 l 11.4,20.8 v 9.7 c 0,2.4 -0.1,3.9 -0.4,4.5 -0.4,0.8 -0.9,1.4 -1.5,1.7 -0.8,0.5 -2,0.8 -3.4,0.8 H 872 v 1.3 h 27.2 v -1.3 h -2.7 c -1.3,0 -2.3,-0.2 -3.1,-0.7 -0.8,-0.5 -1.3,-1 -1.6,-1.6 -0.2,-0.6 -0.4,-2.2 -0.4,-4.7 v -11.7 l 10.5,-17.6 c 2.6,-4.5 4.5,-7.2 5.6,-8.2 0.9,-0.7 2.1,-1.2 3.7,-1.4 V 640 h -14.8 v 1.3 z"
       fill="#cf111b"
       p-id="4539"
       id="path3" />
  </g>
</svg>
